HIERARCHY
ROOT Hips
{
	OFFSET -0.001795 -0.223333 0.028219
	CHANNELS 6 Xposition Yposition Zposition Zrotation Yrotation Xrotation 
	JOINT LeftUpLeg
	{
		OFFSET 0.069520 -0.091406 -0.006815
		CHANNELS 3 Zrotation Yrotation Xrotation
		JOINT LeftLeg
		{
			OFFSET 0.034277 -0.375199 -0.004496
			CHANNELS 3 Zrotation Yrotation Xrotation
			JOINT LeftFoot
			{
				OFFSET -0.013596 -0.397961 -0.043693
				CHANNELS 3 Zrotation Yrotation Xrotation
				JOINT LeftToe
				{
					OFFSET 0.026358 -0.055791 0.119288
					CHANNELS 3 Zrotation Yrotation Xrotation
					End Site
					{
						OFFSET 0.000000 0.000000 0.000000
					}
				}
			}
		}
	}
	JOINT RightUpLeg
	{
		OFFSET -0.067670 -0.090522 -0.004320
		CHANNELS 3 Zrotation Yrotation Xrotation
		JOINT RightLeg
		{
			OFFSET -0.038290 -0.382569 -0.008850
			CHANNELS 3 Zrotation Yrotation Xrotation
			JOINT RightFoot
			{
				OFFSET 0.015774 -0.398415 -0.042312
				CHANNELS 3 Zrotation Yrotation Xrotation
				JOINT RightToe
				{
					OFFSET -0.025372 -0.048144 0.123348
					CHANNELS 3 Zrotation Yrotation Xrotation
					End Site
					{
						OFFSET 0.000000 0.000000 0.000000
					}
				}
			}
		}
	}
	JOINT Spine
	{
		OFFSET -0.002533 0.108963 -0.026696
		CHANNELS 3 Zrotation Yrotation Xrotation
		JOINT Spine1
		{
			OFFSET 0.005487 0.135180 0.001092
			CHANNELS 3 Zrotation Yrotation Xrotation
			JOINT Spine2
			{
				OFFSET 0.001457 0.052922 0.025425
				CHANNELS 3 Zrotation Yrotation Xrotation
				JOINT Neck
				{
					OFFSET -0.002778 0.213870 -0.042857
					CHANNELS 3 Zrotation Yrotation Xrotation
					JOINT Head
					{
						OFFSET 0.005152 0.064970 0.051349
						CHANNELS 3 Zrotation Yrotation Xrotation
						End Site
						{
							OFFSET 0.000000 0.000000 0.000000
						}
					}
				}
				JOINT LeftShoulder
				{
					OFFSET 0.078845 0.121749 -0.034090
					CHANNELS 3 Zrotation Yrotation Xrotation
					JOINT LeftArm
					{
						OFFSET 0.090977 0.030469 -0.008868
						CHANNELS 3 Zrotation Yrotation Xrotation
						JOINT LeftForeArm
						{
							OFFSET 0.259612 -0.012772 -0.027456
							CHANNELS 3 Zrotation Yrotation Xrotation
							JOINT LeftHand
							{
								OFFSET 0.249234 0.008986 -0.001171
								CHANNELS 3 Zrotation Yrotation Xrotation
								End Site
								{
									OFFSET 0.000000 0.000000 0.000000
								}
							}
						}
					}
				}
				JOINT RightShoulder
				{
					OFFSET -0.081759 0.118833 -0.038615
					CHANNELS 3 Zrotation Yrotation Xrotation
					JOINT RightArm
					{
						OFFSET -0.096012 0.032551 -0.009143
						CHANNELS 3 Zrotation Yrotation Xrotation
						JOINT RightForeArm
						{
							OFFSET -0.253742 -0.013329 -0.021401
							CHANNELS 3 Zrotation Yrotation Xrotation
							JOINT RightHand
							{
								OFFSET -0.255298 0.007772 -0.005559
								CHANNELS 3 Zrotation Yrotation Xrotation
								End Site
								{
									OFFSET 0.000000 0.000000 0.000000
								}
							}
						}
					}
				}
			}
		}
	}
}
MOTION
Frames: 9
Frame Time: 0.050000
0.000000 0.935740 0.000000 0.279798 4.531614 -0.557126 4.757220 -1.591225 -25.139589 -9.687372 2.400109 40.280855 9.833707 20.244820 5.865805 0.000000 0.000000 0.000000 3.925606 0.100376 -1.164281 -1.395542 0.844103 15.698589 -1.324396 2.059793 -11.182248 0.000000 0.000000 0.000000 7.385385 -1.403562 12.140954 -5.740027 2.276920 -18.265362 -0.875932 6.075356 25.132489 11.830193 -4.564066 -22.887920 0.000000 0.000000 0.000000 -20.155045 -7.966958 0.671785 -52.822715 -2.196036 -6.973754 0.166983 -27.632303 0.854641 0.000000 0.000000 0.000000 23.953547 -4.035015 -1.164150 57.545867 12.189876 -2.542357 -2.188144 29.181736 1.592669 0.000000 0.000000 0.000000 
0.020442 0.931602 0.063482 -0.187430 3.126816 0.052552 6.646135 -1.216025 -26.843271 -6.588161 1.027301 20.843366 9.797062 20.309407 10.504112 0.000000 0.000000 0.000000 3.881949 -0.428475 2.581860 -3.243782 1.345317 15.551087 0.219252 6.161165 -9.035251 0.000000 0.000000 0.000000 7.144324 -1.501275 13.292878 -5.389472 2.006360 -22.507826 0.095261 8.648458 26.526096 11.660202 -3.606278 -25.605964 0.000000 0.000000 0.000000 -20.581457 -5.868765 -1.039955 -53.060735 1.889339 -8.723157 -2.096910 -28.297853 1.326142 0.000000 0.000000 0.000000 24.103249 -5.085901 -1.214393 58.627934 13.959270 -1.821641 -2.508912 32.604456 2.059040 0.000000 0.000000 0.000000 
0.042387 0.919045 0.129285 -0.634585 -0.445044 -0.748177 6.423877 -1.043370 -28.355656 -0.883598 -0.172968 10.343981 6.418215 14.788570 11.457233 0.000000 0.000000 0.000000 2.227218 -0.980097 7.785175 -2.629284 1.301680 15.728344 0.180997 8.011224 -10.546934 0.000000 0.000000 0.000000 6.903523 -1.444436 13.868323 -5.568993 2.000568 -22.460510 0.124433 10.880683 27.819662 10.377693 -2.672093 -26.390174 0.000000 0.000000 0.000000 -19.592613 -4.676593 -1.446850 -53.213746 2.227730 -9.151968 -1.043350 -26.256237 1.020761 0.000000 0.000000 0.000000 22.634101 -2.523194 0.344268 58.328463 18.524765 0.455755 -3.680388 34.881707 1.882697 0.000000 0.000000 0.000000 
0.066114 0.907949 0.198861 -0.225318 -3.628755 -2.219535 6.679620 -0.679648 -27.386071 -1.730230 0.079911 8.424910 5.629064 13.205816 11.764899 0.000000 0.000000 0.000000 -0.422526 -1.195507 13.609265 -4.756284 1.980832 16.477577 0.960583 11.014985 -10.275728 0.000000 0.000000 0.000000 5.857550 -1.306893 14.959125 -6.288271 2.148257 -22.506940 2.371299 13.991430 29.278553 10.140915 -2.177756 -27.277703 0.000000 0.000000 0.000000 -20.477422 -6.497414 -0.904833 -53.025236 2.785797 -9.350207 -0.214484 -24.075106 0.740078 0.000000 0.000000 0.000000 23.368309 -2.641735 0.640583 56.165195 19.908060 0.665129 -4.679818 37.164937 1.849899 0.000000 0.000000 0.000000 
0.092717 0.897407 0.274370 0.181116 -4.062163 -2.821748 5.152652 -1.038956 -28.112487 -2.728627 0.295606 18.249105 6.763859 15.030540 13.012860 0.000000 0.000000 0.000000 -2.962008 -0.910115 15.321480 -5.822520 2.981222 22.690146 0.954842 10.779913 -10.039385 0.000000 0.000000 0.000000 4.434861 -0.984233 13.260975 -5.355286 1.943815 -20.251518 1.911631 14.215808 29.582025 9.907385 -2.100354 -26.955076 0.000000 0.000000 0.000000 -21.288060 -6.890278 -0.797351 -53.541192 3.035969 -9.525487 3.303714 -23.783423 0.014946 0.000000 0.000000 0.000000 24.523216 -1.875765 1.248510 55.873906 20.958783 0.919354 -6.615542 37.795324 1.368539 0.000000 0.000000 0.000000 
0.119210 0.895681 0.353553 1.713644 -4.238498 -3.630771 2.838888 -1.628891 -28.361641 -4.509731 1.095246 28.294410 5.861621 13.482946 11.361904 0.000000 0.000000 0.000000 -6.189269 -0.278524 12.146408 -5.912591 4.833036 36.267829 4.025460 10.333803 0.067351 0.000000 0.000000 0.000000 3.249687 -0.782599 12.475032 -5.577428 2.039869 -19.042600 1.909233 14.246597 28.936600 9.038308 -1.640250 -26.581955 0.000000 0.000000 0.000000 -23.214951 -7.242501 -0.917888 -51.581373 2.851297 -8.799731 3.499661 -22.204521 -0.025805 0.000000 0.000000 0.000000 23.585158 -2.194880 0.893446 56.150480 18.835546 0.095844 -5.178414 37.962844 1.786220 0.000000 0.000000 0.000000 
0.141829 0.900997 0.430742 2.961834 -4.148540 -4.353029 0.474735 -2.009307 -25.011034 -6.897715 2.285924 32.498990 7.053204 15.135374 7.696098 0.000000 0.000000 0.000000 -6.944196 0.003641 5.167687 -6.069629 7.573163 52.463577 6.310745 5.429235 14.525036 0.000000 0.000000 0.000000 2.938125 -0.768713 13.045972 -5.683936 2.061596 -19.722146 0.619213 13.565640 28.862362 10.657532 -2.677904 -27.015520 0.000000 0.000000 0.000000 -22.808080 -7.497522 -0.457269 -51.202863 1.881613 -8.421271 3.103910 -22.861756 0.079738 0.000000 0.000000 0.000000 23.927165 -3.661124 -0.233418 57.400969 15.614129 -1.333653 -2.995095 36.564425 2.305292 0.000000 0.000000 0.000000 
0.158214 0.915891 0.501774 3.122208 -2.971740 -4.393470 -2.752958 -2.124521 -18.715120 -5.672311 1.521416 29.928234 7.106387 15.079073 4.446257 0.000000 0.000000 0.000000 -5.097775 0.258558 -2.891917 -4.001644 7.574550 63.240841 3.097329 -1.561245 17.375292 0.000000 0.000000 0.000000 3.761518 -0.896309 13.388038 -6.008354 2.176141 -19.903436 -1.264136 10.597225 28.350301 9.955921 -2.573660 -27.491637 0.000000 0.000000 0.000000 -22.119082 -7.514120 0.383448 -49.941921 -0.076216 -7.606558 2.893344 -24.147698 0.221820 0.000000 0.000000 0.000000 24.246069 -4.372066 -1.328974 57.939880 13.559199 -2.228976 -1.703927 32.282503 2.075046 0.000000 0.000000 0.000000 
0.170234 0.936309 0.568451 2.134372 -1.650526 -4.960162 -4.418922 -1.253608 -9.511214 -2.417296 0.090773 23.132295 5.960056 12.930155 3.434418 0.000000 0.000000 0.000000 -2.918711 0.813706 -10.287208 -0.121596 4.236699 66.109260 -1.734009 -8.391776 12.041578 0.000000 0.000000 0.000000 4.886631 -1.105983 14.263817 -5.323123 1.983659 -21.186900 -2.356153 7.119053 29.986491 10.027217 -3.207439 -27.215061 0.000000 0.000000 0.000000 -21.554661 -7.012169 1.097741 -49.423118 -2.038375 -7.213144 2.680470 -27.323792 0.488311 0.000000 0.000000 0.000000 24.182864 -4.911952 -2.400617 58.516261 11.080470 -3.509636 -0.961042 30.709452 1.979662 0.000000 0.000000 0.000000 
